<mxfile host="app.diagrams.net" modified="2023-12-17T13:16:33.052Z" agent="Mozilla/5.0 (Windows NT 10.0; Win64; x64) AppleWebKit/537.36 (KHTML, like Gecko) Chrome/120.0.0.0 Safari/537.36" etag="BHweoBpjQfWXTReTleYE" version="22.1.11" type="github">
  <diagram id="C5RBs43oDa-KdzZeNtuy" name="Page-1">
    <mxGraphModel dx="875" dy="435" grid="1" gridSize="10" guides="1" tooltips="1" connect="1" arrows="1" fold="1" page="1" pageScale="1" pageWidth="827" pageHeight="1169" math="0" shadow="0">
      <root>
        <mxCell id="WIyWlLk6GJQsqaUBKTNV-0" />
        <mxCell id="WIyWlLk6GJQsqaUBKTNV-1" parent="WIyWlLk6GJQsqaUBKTNV-0" />
        <mxCell id="XJm4mk42wIwYTU8o-YUx-0" value="FashionnistaShoppingControl&lt;br&gt;&lt;br&gt;0000" style="rounded=0;whiteSpace=wrap;html=1;" vertex="1" parent="WIyWlLk6GJQsqaUBKTNV-1">
          <mxGeometry x="380" y="110" width="266" height="60" as="geometry" />
        </mxCell>
        <mxCell id="XJm4mk42wIwYTU8o-YUx-2" value="" style="endArrow=none;html=1;rounded=0;" edge="1" parent="WIyWlLk6GJQsqaUBKTNV-1">
          <mxGeometry width="50" height="50" relative="1" as="geometry">
            <mxPoint x="180" y="210" as="sourcePoint" />
            <mxPoint x="830" y="210" as="targetPoint" />
          </mxGeometry>
        </mxCell>
        <mxCell id="XJm4mk42wIwYTU8o-YUx-4" value="" style="endArrow=classic;html=1;rounded=0;" edge="1" parent="WIyWlLk6GJQsqaUBKTNV-1">
          <mxGeometry width="50" height="50" relative="1" as="geometry">
            <mxPoint x="180" y="210" as="sourcePoint" />
            <mxPoint x="180" y="250" as="targetPoint" />
          </mxGeometry>
        </mxCell>
        <mxCell id="XJm4mk42wIwYTU8o-YUx-5" value="" style="endArrow=classic;html=1;rounded=0;" edge="1" parent="WIyWlLk6GJQsqaUBKTNV-1">
          <mxGeometry width="50" height="50" relative="1" as="geometry">
            <mxPoint x="827" y="210" as="sourcePoint" />
            <mxPoint x="827" y="250" as="targetPoint" />
          </mxGeometry>
        </mxCell>
        <mxCell id="XJm4mk42wIwYTU8o-YUx-6" value="" style="endArrow=classic;html=1;rounded=0;" edge="1" parent="WIyWlLk6GJQsqaUBKTNV-1">
          <mxGeometry width="50" height="50" relative="1" as="geometry">
            <mxPoint x="519.71" y="210" as="sourcePoint" />
            <mxPoint x="519.71" y="250" as="targetPoint" />
          </mxGeometry>
        </mxCell>
        <mxCell id="XJm4mk42wIwYTU8o-YUx-7" value="Read&lt;br&gt;1000" style="rounded=0;whiteSpace=wrap;html=1;" vertex="1" parent="WIyWlLk6GJQsqaUBKTNV-1">
          <mxGeometry x="120" y="250" width="120" height="40" as="geometry" />
        </mxCell>
        <mxCell id="XJm4mk42wIwYTU8o-YUx-8" value="" style="endArrow=none;html=1;rounded=0;" edge="1" parent="WIyWlLk6GJQsqaUBKTNV-1">
          <mxGeometry width="50" height="50" relative="1" as="geometry">
            <mxPoint x="180" y="320" as="sourcePoint" />
            <mxPoint x="180" y="290" as="targetPoint" />
          </mxGeometry>
        </mxCell>
        <mxCell id="XJm4mk42wIwYTU8o-YUx-9" value="" style="endArrow=none;html=1;rounded=0;" edge="1" parent="WIyWlLk6GJQsqaUBKTNV-1">
          <mxGeometry width="50" height="50" relative="1" as="geometry">
            <mxPoint x="40" y="320" as="sourcePoint" />
            <mxPoint x="370" y="320" as="targetPoint" />
          </mxGeometry>
        </mxCell>
        <mxCell id="XJm4mk42wIwYTU8o-YUx-10" value="" style="endArrow=classic;html=1;rounded=0;" edge="1" parent="WIyWlLk6GJQsqaUBKTNV-1">
          <mxGeometry width="50" height="50" relative="1" as="geometry">
            <mxPoint x="40" y="320" as="sourcePoint" />
            <mxPoint x="40" y="350" as="targetPoint" />
          </mxGeometry>
        </mxCell>
        <mxCell id="XJm4mk42wIwYTU8o-YUx-11" value="" style="endArrow=classic;html=1;rounded=0;" edge="1" parent="WIyWlLk6GJQsqaUBKTNV-1">
          <mxGeometry width="50" height="50" relative="1" as="geometry">
            <mxPoint x="80" y="320" as="sourcePoint" />
            <mxPoint x="80" y="350" as="targetPoint" />
          </mxGeometry>
        </mxCell>
        <mxCell id="XJm4mk42wIwYTU8o-YUx-12" value="" style="endArrow=classic;html=1;rounded=0;" edge="1" parent="WIyWlLk6GJQsqaUBKTNV-1">
          <mxGeometry width="50" height="50" relative="1" as="geometry">
            <mxPoint x="234.71" y="320" as="sourcePoint" />
            <mxPoint x="234.71" y="350" as="targetPoint" />
          </mxGeometry>
        </mxCell>
        <mxCell id="XJm4mk42wIwYTU8o-YUx-13" value="" style="endArrow=classic;html=1;rounded=0;" edge="1" parent="WIyWlLk6GJQsqaUBKTNV-1">
          <mxGeometry width="50" height="50" relative="1" as="geometry">
            <mxPoint x="179.71" y="320" as="sourcePoint" />
            <mxPoint x="179.71" y="350" as="targetPoint" />
          </mxGeometry>
        </mxCell>
        <mxCell id="XJm4mk42wIwYTU8o-YUx-14" value="" style="endArrow=classic;html=1;rounded=0;" edge="1" parent="WIyWlLk6GJQsqaUBKTNV-1">
          <mxGeometry width="50" height="50" relative="1" as="geometry">
            <mxPoint x="120" y="320" as="sourcePoint" />
            <mxPoint x="120" y="350" as="targetPoint" />
          </mxGeometry>
        </mxCell>
        <mxCell id="XJm4mk42wIwYTU8o-YUx-15" value="&lt;font style=&quot;font-size: 8px;&quot;&gt;name&lt;br&gt;1100&lt;/font&gt;" style="rounded=0;whiteSpace=wrap;html=1;" vertex="1" parent="WIyWlLk6GJQsqaUBKTNV-1">
          <mxGeometry x="20" y="350" width="30" height="30" as="geometry" />
        </mxCell>
        <mxCell id="XJm4mk42wIwYTU8o-YUx-16" value="&lt;span style=&quot;font-size: 8px;&quot;&gt;phone&lt;br&gt;1200&lt;br&gt;&lt;/span&gt;" style="rounded=0;whiteSpace=wrap;html=1;" vertex="1" parent="WIyWlLk6GJQsqaUBKTNV-1">
          <mxGeometry x="60" y="350" width="30" height="30" as="geometry" />
        </mxCell>
        <mxCell id="XJm4mk42wIwYTU8o-YUx-17" value="&lt;span style=&quot;font-size: 8px;&quot;&gt;voucher_code&lt;br&gt;1500&lt;br&gt;&lt;/span&gt;" style="rounded=0;whiteSpace=wrap;html=1;" vertex="1" parent="WIyWlLk6GJQsqaUBKTNV-1">
          <mxGeometry x="210" y="350" width="60" height="30" as="geometry" />
        </mxCell>
        <mxCell id="XJm4mk42wIwYTU8o-YUx-18" value="&lt;font style=&quot;font-size: 8px;&quot;&gt;attireChar&lt;br&gt;1400&lt;br&gt;&lt;/font&gt;" style="rounded=0;whiteSpace=wrap;html=1;" vertex="1" parent="WIyWlLk6GJQsqaUBKTNV-1">
          <mxGeometry x="160" y="350" width="40" height="30" as="geometry" />
        </mxCell>
        <mxCell id="XJm4mk42wIwYTU8o-YUx-19" value="&lt;font style=&quot;&quot;&gt;&lt;font style=&quot;font-size: 8px;&quot;&gt;categoryInt&lt;br&gt;1300&lt;/font&gt;&lt;br&gt;&lt;/font&gt;" style="rounded=0;whiteSpace=wrap;html=1;" vertex="1" parent="WIyWlLk6GJQsqaUBKTNV-1">
          <mxGeometry x="100" y="350" width="50" height="30" as="geometry" />
        </mxCell>
        <mxCell id="XJm4mk42wIwYTU8o-YUx-20" value="&lt;span style=&quot;font-size: 8px;&quot;&gt;voucher_name&lt;br&gt;1600&lt;br&gt;&lt;/span&gt;" style="rounded=0;whiteSpace=wrap;html=1;" vertex="1" parent="WIyWlLk6GJQsqaUBKTNV-1">
          <mxGeometry x="280" y="350" width="60" height="30" as="geometry" />
        </mxCell>
        <mxCell id="XJm4mk42wIwYTU8o-YUx-22" value="&lt;span style=&quot;font-size: 8px;&quot;&gt;voucher_YN&lt;br&gt;1700&lt;br&gt;&lt;/span&gt;" style="rounded=0;whiteSpace=wrap;html=1;" vertex="1" parent="WIyWlLk6GJQsqaUBKTNV-1">
          <mxGeometry x="350" y="350" width="50" height="30" as="geometry" />
        </mxCell>
        <mxCell id="XJm4mk42wIwYTU8o-YUx-51" value="" style="edgeStyle=orthogonalEdgeStyle;rounded=0;orthogonalLoop=1;jettySize=auto;html=1;" edge="1" parent="WIyWlLk6GJQsqaUBKTNV-1" source="XJm4mk42wIwYTU8o-YUx-23" target="XJm4mk42wIwYTU8o-YUx-41">
          <mxGeometry relative="1" as="geometry" />
        </mxCell>
        <mxCell id="XJm4mk42wIwYTU8o-YUx-23" value="Print&lt;br&gt;3000" style="rounded=0;whiteSpace=wrap;html=1;" vertex="1" parent="WIyWlLk6GJQsqaUBKTNV-1">
          <mxGeometry x="770" y="250" width="120" height="40" as="geometry" />
        </mxCell>
        <mxCell id="XJm4mk42wIwYTU8o-YUx-24" value="Calc&lt;br&gt;2000" style="rounded=0;whiteSpace=wrap;html=1;" vertex="1" parent="WIyWlLk6GJQsqaUBKTNV-1">
          <mxGeometry x="460" y="250" width="120" height="40" as="geometry" />
        </mxCell>
        <mxCell id="XJm4mk42wIwYTU8o-YUx-27" value="" style="endArrow=classic;html=1;rounded=0;" edge="1" parent="WIyWlLk6GJQsqaUBKTNV-1">
          <mxGeometry width="50" height="50" relative="1" as="geometry">
            <mxPoint x="370" y="320" as="sourcePoint" />
            <mxPoint x="370" y="350" as="targetPoint" />
          </mxGeometry>
        </mxCell>
        <mxCell id="XJm4mk42wIwYTU8o-YUx-28" value="" style="endArrow=classic;html=1;rounded=0;" edge="1" parent="WIyWlLk6GJQsqaUBKTNV-1">
          <mxGeometry width="50" height="50" relative="1" as="geometry">
            <mxPoint x="290" y="320" as="sourcePoint" />
            <mxPoint x="290" y="350" as="targetPoint" />
          </mxGeometry>
        </mxCell>
        <mxCell id="XJm4mk42wIwYTU8o-YUx-29" value="Total = new_price_voucher" style="whiteSpace=wrap;html=1;rounded=0;" vertex="1" parent="WIyWlLk6GJQsqaUBKTNV-1">
          <mxGeometry x="450" y="320" width="160" height="40" as="geometry" />
        </mxCell>
        <mxCell id="XJm4mk42wIwYTU8o-YUx-32" value="" style="endArrow=none;html=1;rounded=0;" edge="1" parent="WIyWlLk6GJQsqaUBKTNV-1">
          <mxGeometry width="50" height="50" relative="1" as="geometry">
            <mxPoint x="520" y="210" as="sourcePoint" />
            <mxPoint x="519.71" y="170" as="targetPoint" />
          </mxGeometry>
        </mxCell>
        <mxCell id="XJm4mk42wIwYTU8o-YUx-33" value="" style="endArrow=classic;html=1;rounded=0;" edge="1" parent="WIyWlLk6GJQsqaUBKTNV-1">
          <mxGeometry width="50" height="50" relative="1" as="geometry">
            <mxPoint x="520" y="290" as="sourcePoint" />
            <mxPoint x="519.71" y="320" as="targetPoint" />
          </mxGeometry>
        </mxCell>
        <mxCell id="XJm4mk42wIwYTU8o-YUx-40" value="&lt;span style=&quot;font-size: 8px;&quot;&gt;receipt&lt;br&gt;3300&lt;br&gt;&lt;/span&gt;" style="rounded=0;whiteSpace=wrap;html=1;" vertex="1" parent="WIyWlLk6GJQsqaUBKTNV-1">
          <mxGeometry x="820" y="350" width="50" height="30" as="geometry" />
        </mxCell>
        <mxCell id="XJm4mk42wIwYTU8o-YUx-41" value="&lt;span style=&quot;font-size: 8px;&quot;&gt;phone&lt;br&gt;3200&lt;br&gt;&lt;/span&gt;" style="rounded=0;whiteSpace=wrap;html=1;" vertex="1" parent="WIyWlLk6GJQsqaUBKTNV-1">
          <mxGeometry x="750" y="350" width="50" height="30" as="geometry" />
        </mxCell>
        <mxCell id="XJm4mk42wIwYTU8o-YUx-42" value="&lt;span style=&quot;font-size: 8px;&quot;&gt;name&lt;br&gt;3100&lt;br&gt;&lt;/span&gt;" style="rounded=0;whiteSpace=wrap;html=1;" vertex="1" parent="WIyWlLk6GJQsqaUBKTNV-1">
          <mxGeometry x="680" y="350" width="50" height="30" as="geometry" />
        </mxCell>
        <mxCell id="XJm4mk42wIwYTU8o-YUx-43" value="" style="endArrow=none;html=1;rounded=0;" edge="1" parent="WIyWlLk6GJQsqaUBKTNV-1">
          <mxGeometry width="50" height="50" relative="1" as="geometry">
            <mxPoint x="700" y="320" as="sourcePoint" />
            <mxPoint x="980" y="320" as="targetPoint" />
          </mxGeometry>
        </mxCell>
        <mxCell id="XJm4mk42wIwYTU8o-YUx-44" value="" style="endArrow=classic;html=1;rounded=0;" edge="1" parent="WIyWlLk6GJQsqaUBKTNV-1">
          <mxGeometry width="50" height="50" relative="1" as="geometry">
            <mxPoint x="700" y="320" as="sourcePoint" />
            <mxPoint x="700" y="350" as="targetPoint" />
          </mxGeometry>
        </mxCell>
        <mxCell id="XJm4mk42wIwYTU8o-YUx-45" value="&lt;span style=&quot;font-size: 8px;&quot;&gt;Total&lt;br&gt;3500&lt;br&gt;&lt;/span&gt;" style="rounded=0;whiteSpace=wrap;html=1;" vertex="1" parent="WIyWlLk6GJQsqaUBKTNV-1">
          <mxGeometry x="960" y="350" width="50" height="30" as="geometry" />
        </mxCell>
        <mxCell id="XJm4mk42wIwYTU8o-YUx-46" value="&lt;span style=&quot;font-size: 8px;&quot;&gt;quantity&lt;br&gt;3400&lt;br&gt;&lt;/span&gt;" style="rounded=0;whiteSpace=wrap;html=1;" vertex="1" parent="WIyWlLk6GJQsqaUBKTNV-1">
          <mxGeometry x="890" y="350" width="50" height="30" as="geometry" />
        </mxCell>
        <mxCell id="XJm4mk42wIwYTU8o-YUx-47" value="" style="endArrow=classic;html=1;rounded=0;" edge="1" parent="WIyWlLk6GJQsqaUBKTNV-1">
          <mxGeometry width="50" height="50" relative="1" as="geometry">
            <mxPoint x="980" y="320" as="sourcePoint" />
            <mxPoint x="980" y="350" as="targetPoint" />
          </mxGeometry>
        </mxCell>
        <mxCell id="XJm4mk42wIwYTU8o-YUx-48" value="" style="endArrow=classic;html=1;rounded=0;" edge="1" parent="WIyWlLk6GJQsqaUBKTNV-1">
          <mxGeometry width="50" height="50" relative="1" as="geometry">
            <mxPoint x="774.58" y="320" as="sourcePoint" />
            <mxPoint x="774.58" y="350" as="targetPoint" />
          </mxGeometry>
        </mxCell>
        <mxCell id="XJm4mk42wIwYTU8o-YUx-49" value="" style="endArrow=classic;html=1;rounded=0;" edge="1" parent="WIyWlLk6GJQsqaUBKTNV-1">
          <mxGeometry width="50" height="50" relative="1" as="geometry">
            <mxPoint x="840" y="320" as="sourcePoint" />
            <mxPoint x="840" y="350" as="targetPoint" />
          </mxGeometry>
        </mxCell>
        <mxCell id="XJm4mk42wIwYTU8o-YUx-50" value="" style="endArrow=classic;html=1;rounded=0;" edge="1" parent="WIyWlLk6GJQsqaUBKTNV-1">
          <mxGeometry width="50" height="50" relative="1" as="geometry">
            <mxPoint x="920" y="320" as="sourcePoint" />
            <mxPoint x="920" y="350" as="targetPoint" />
          </mxGeometry>
        </mxCell>
      </root>
    </mxGraphModel>
  </diagram>
</mxfile>
